<svg width="115" height="32" viewBox="0 0 115 32" fill="none" xmlns="http://www.w3.org/2000/svg">
<g clip-path="url(#clip0_552_20644)">
<path d="M0.611084 16C0.611084 7.16344 7.77453 0 16.6111 0H108.389C111.703 0 114.389 2.68629 114.389 6V26C114.389 29.3137 111.703 32 108.389 32H16.6111C7.77452 32 0.611084 24.8366 0.611084 16Z" fill="white"/>
<path d="M111.782 0.545487C112.342 0.54655 112.879 0.79208 113.275 1.22829C113.671 1.6645 113.894 2.25582 113.895 2.87271V29.129C113.894 29.7459 113.671 30.3372 113.275 30.7734C112.879 31.2096 112.342 31.4552 111.782 31.4562H15.1413C13.2821 31.4841 11.4365 31.105 9.71151 30.3408C7.98654 29.5766 6.41664 28.4426 5.09297 27.0047C3.76931 25.5668 2.71827 23.8536 2.00089 21.9645C1.28351 20.0755 0.914095 18.0484 0.914095 16.0009C0.914095 13.9533 1.28351 11.9262 2.00089 10.0372C2.71827 8.14817 3.76931 6.43495 5.09297 4.99702C6.41664 3.55909 7.98654 2.4251 9.71151 1.66092C11.4365 0.896732 13.2821 0.517582 15.1413 0.545487H111.782ZM111.782 0.00172259H15.1413C13.2332 0.00149636 11.3438 0.415167 9.58092 1.21911C7.81805 2.02306 6.21624 3.20153 4.86697 4.68724C3.5177 6.17294 2.44739 7.93678 1.71716 9.87804C0.98693 11.8193 0.611084 13.8999 0.611084 16.0012C0.611637 20.2445 2.14274 24.3139 4.86761 27.3142C7.59249 30.3145 11.288 32 15.1413 32H111.782C112.473 32 113.136 31.6975 113.625 31.1591C114.114 30.6207 114.389 29.8904 114.389 29.129V2.87099C114.389 2.10955 114.114 1.37931 113.625 0.840892C113.136 0.302478 112.473 0 111.782 0V0.00172259Z" fill="#6F7072"/>
<path d="M15.2649 6.30299C15.3582 6.30294 15.4498 6.3303 15.5303 6.38223L22.7002 10.9167C22.7808 10.9679 22.8477 11.0415 22.8943 11.1302C22.9409 11.2189 22.9655 11.3195 22.9656 11.422L22.9818 20.5259C22.9818 20.6286 22.9573 20.7296 22.9107 20.8187C22.8641 20.9078 22.7971 20.9818 22.7164 21.0334L15.5668 25.6081C15.4863 25.66 15.3947 25.6874 15.3014 25.6873C15.2084 25.6871 15.117 25.6606 15.036 25.6104L7.86761 21.0782C7.78487 21.0278 7.71587 20.9539 7.66775 20.8643C7.61962 20.7747 7.59411 20.6725 7.59387 20.5683L7.57509 11.4622C7.57509 11.3594 7.5996 11.2584 7.64618 11.1693C7.69275 11.0802 7.75976 11.0062 7.84049 10.9546L15.0005 6.38453C15.0805 6.33199 15.1717 6.30384 15.2649 6.30299ZM15.2649 5.1546C14.988 5.15217 14.7155 5.23042 14.4749 5.3814L7.32117 9.95833C7.08186 10.1116 6.88338 10.3315 6.74564 10.596C6.60791 10.8604 6.53576 11.1602 6.53644 11.465L6.56512 20.5712C6.56549 20.8759 6.63868 21.1751 6.77734 21.4388C6.91601 21.7025 7.11526 21.9213 7.35506 22.0733L14.5255 26.6049C14.7652 26.754 15.036 26.8322 15.3113 26.8317C15.5881 26.8341 15.8607 26.7559 16.1012 26.6049L23.2446 22.0348C23.4832 21.881 23.6811 21.6609 23.8183 21.3965C23.9556 21.1321 24.0274 20.8327 24.0267 20.5281L24.01 11.422C24.0096 11.1186 23.9373 10.8206 23.8001 10.5575C23.6629 10.2944 23.4656 10.0754 23.2279 9.92215L16.0606 5.39002C15.8212 5.24001 15.5502 5.16181 15.2748 5.16321L15.2649 5.1546Z" fill="#000091"/>
<path d="M23.5418 18.4539C24.9837 18.4539 25.9923 17.198 25.9923 15.8564C25.9923 14.5149 24.9837 13.259 23.5418 13.259C22.0998 13.259 21.0912 14.5149 21.0912 15.8564C21.0912 17.198 22.0998 18.4539 23.5418 18.4539Z" fill="white" stroke="#545859" stroke-width="2" stroke-miterlimit="10"/>
<path d="M11.3016 10.7815C12.7436 10.7815 13.7522 9.52567 13.7522 8.18409C13.7522 6.8425 12.7436 5.58667 11.3016 5.58667C9.85967 5.58667 8.85107 6.8425 8.85107 8.18409C8.85107 9.52567 9.85967 10.7815 11.3016 10.7815Z" fill="white" stroke="#E1000F" stroke-width="2" stroke-miterlimit="10"/>
<path d="M10.6989 26.228C12.1409 26.228 13.1495 24.9722 13.1495 23.6306C13.1495 22.289 12.1409 21.0332 10.6989 21.0332C9.25695 21.0332 8.24835 22.289 8.24835 23.6306C8.24835 24.9722 9.25695 26.228 10.6989 26.228Z" fill="white" stroke="#000091" stroke-width="2" stroke-miterlimit="10"/>
<path d="M17.1552 12.9941L17.1765 13.9188L13.5801 13.9808L13.5588 13.0506C13.5527 12.5582 13.7243 12.0912 14.0238 11.7501C14.3213 11.4114 14.7174 11.2265 15.1218 11.2169H15.5277V11.2169L15.5359 11.2168C15.9419 11.2101 16.3442 11.3803 16.6519 11.7081C16.9611 12.0374 17.1468 12.4979 17.1551 12.9911L17.1552 12.9941ZM11.8039 13.0869L11.8039 13.0869L11.8039 13.0909L11.843 14.9306C11.8445 15.0436 11.8661 15.1563 11.9075 15.2625L12.3734 15.0811L11.9075 15.2625C11.9492 15.3699 12.011 15.47 12.0914 15.5561C12.1718 15.6423 12.2696 15.7129 12.3806 15.7614C12.4915 15.8098 12.6119 15.8343 12.7343 15.8322C12.7345 15.8322 12.7347 15.8322 12.7348 15.8322L18.0821 15.7392L18.0753 15.2392L18.084 15.7392L18.0834 15.7392C18.2055 15.7373 18.3245 15.709 18.4334 15.6574C18.5425 15.6058 18.6379 15.5325 18.7157 15.4443C18.7934 15.3562 18.8523 15.2547 18.8912 15.1466C18.9301 15.0384 18.9488 14.9243 18.947 14.8102L18.9471 14.8102L18.947 14.8077L18.91 12.9649C18.91 12.9646 18.91 12.9644 18.91 12.9641C18.8937 12.0163 18.5374 11.1053 17.906 10.4328C17.2738 9.75948 16.4147 9.37901 15.5134 9.3923H15.1059V9.39221L15.096 9.3924C14.1924 9.4103 13.3435 9.82203 12.7312 10.5186C12.1203 11.2137 11.7913 12.1377 11.8039 13.0869Z" fill="#E1000F" stroke="#E1000F" stroke-miterlimit="10"/>
<path d="M18.1596 21.1205L18.1599 21.1205L18.5232 20.1968L19.0231 20.1895L19.0231 20.1892L18.9449 14.8104L18.9449 14.8102C18.9415 14.5826 18.8567 14.3568 18.6959 14.1846C18.5336 14.0108 18.3047 13.9047 18.0561 13.9078L18.0535 13.9078L12.7038 14.0008L12.7035 14.0008C12.5813 14.0031 12.4622 14.0318 12.3534 14.0838L12.5689 14.5349C12.5236 14.5566 12.4825 14.5879 12.4482 14.627C12.4138 14.6662 12.3867 14.7124 12.3686 14.763C12.3504 14.8137 12.3415 14.8678 12.3423 14.9222L11.8424 14.9293L11.8424 14.9295C11.8424 14.9296 11.8424 14.9297 11.8424 14.9298L11.9185 20.3107H11.9185L11.9186 20.3135C11.9231 20.5402 12.0081 20.7646 12.1681 20.9361C12.3296 21.1091 12.557 21.2151 12.8043 21.2136L12.8043 21.2136L12.8099 21.2135L18.1596 21.1205ZM17.2053 15.7546L17.255 19.3035L13.6584 19.3655L13.6071 15.8166L17.2053 15.7546Z" fill="#000091" stroke="#000091" stroke-miterlimit="10"/>
<path d="M16.5644 19.1041L16.1887 18.6904C16.2206 18.6374 16.2471 18.5815 16.2678 18.5238L15.9261 18.4012L16.2678 18.5238C16.307 18.4145 16.3255 18.2991 16.3233 18.1839C16.3233 18.1839 16.3233 18.1838 16.3233 18.1838C16.3233 18.1837 16.3233 18.1836 16.3233 18.1835L16.299 16.9183C16.3023 16.806 16.2858 16.6932 16.2497 16.586C16.2114 16.4721 16.1512 16.3651 16.0704 16.2726C15.9896 16.18 15.8894 16.1035 15.7745 16.0509C15.6595 15.9982 15.5337 15.9713 15.4055 15.9737C15.2774 15.976 15.1527 16.0074 15.0398 16.0641C14.9271 16.1206 14.8299 16.2003 14.7523 16.2952C14.6748 16.3901 14.618 16.4988 14.5833 16.6136C14.5504 16.7222 14.5373 16.8357 14.5441 16.9483L14.5612 18.117L14.3172 18.117L14.587 18.4141C14.6233 18.5715 14.6996 18.7203 14.8139 18.8421C14.9765 19.0154 15.2054 19.1209 15.4536 19.1178L16.5644 19.1041Z" fill="#E1000F" stroke="#E1000F" stroke-miterlimit="10"/>
<path d="M29.404 19.1873H27.8647V12.6777H30.3154C30.5918 12.6573 30.8691 12.6972 31.1315 12.7951C31.3938 12.8931 31.636 13.0471 31.8442 13.2484C32.1854 13.6999 32.3722 14.2688 32.3722 14.8562C32.3722 15.4436 32.1854 16.0124 31.8442 16.4639C31.6361 16.6655 31.394 16.8196 31.1316 16.9176C30.8692 17.0156 30.5918 17.0554 30.3154 17.0347H29.404V19.1873ZM29.404 15.6595H29.9144C30.481 15.6595 30.7643 15.3883 30.7643 14.8458C30.7643 14.3034 30.4817 14.0337 29.9165 14.0368H29.404V15.6595Z" fill="#6F7072"/>
<path d="M37.7241 19.1862H35.8064L34.3412 16.6782V19.1862H32.7983V12.6777H35.1932C35.4879 12.67 35.7812 12.7245 36.0572 12.8385C36.2898 12.9312 36.5007 13.0799 36.6745 13.2737C36.8336 13.4581 36.9567 13.6764 37.0364 13.9151C37.1181 14.1642 37.1592 14.4272 37.1579 14.692C37.1753 15.1227 37.0609 15.5473 36.833 15.8978C36.5884 16.2245 36.2477 16.4465 35.87 16.5254L37.7241 19.1862ZM34.3417 15.5791H34.6337C34.8805 15.597 35.1258 15.5246 35.3314 15.373C35.4084 15.2984 35.4701 15.2065 35.5124 15.1035C35.5547 15.0006 35.5766 14.8889 35.5766 14.7758C35.5766 14.6628 35.5547 14.5511 35.5124 14.4481C35.4701 14.3452 35.4084 14.2533 35.3314 14.1787C35.1261 14.0263 34.8808 13.953 34.6337 13.9702H34.3417V15.5791Z" fill="#6F7072"/>
<path d="M37.5969 15.926C37.5929 15.459 37.6764 14.9962 37.842 14.5663C38.0004 14.151 38.2333 13.7753 38.5267 13.4615C38.8201 13.1478 39.1681 12.9025 39.5496 12.7403C40.4015 12.3899 41.3397 12.3899 42.1916 12.7403C42.5802 12.9051 42.9348 13.1541 43.2344 13.4724C43.5252 13.7831 43.7558 14.1554 43.9123 14.5669C44.074 14.9957 44.1572 15.4554 44.1572 15.9197C44.1572 16.384 44.074 16.8437 43.9123 17.2725C43.7558 17.684 43.5252 18.0563 43.2344 18.3669C42.9348 18.6853 42.5802 18.9342 42.1916 19.099C41.3397 19.4494 40.4015 19.4494 39.5496 19.099C38.9709 18.8497 38.4744 18.413 38.1258 17.8465C37.7771 17.28 37.5927 16.6103 37.5969 15.926ZM39.2081 15.926C39.2062 16.1731 39.2517 16.4179 39.3416 16.6443C39.5131 17.0773 39.8336 17.4178 40.2327 17.5912C40.5368 17.7246 40.8692 17.7594 41.1907 17.6915C41.5122 17.6237 41.8094 17.456 42.0472 17.2082C42.2018 17.0463 42.3258 16.8523 42.4122 16.6374C42.5004 16.4106 42.5458 16.1664 42.5458 15.9197C42.5458 15.6729 42.5004 15.4287 42.4122 15.2019C42.3264 14.9867 42.2023 14.7926 42.0472 14.6312C41.8069 14.3878 41.5091 14.2242 41.188 14.1592C40.867 14.0943 40.5358 14.1307 40.2327 14.2643C40.0356 14.3513 39.8555 14.4789 39.7019 14.6404C39.5495 14.8032 39.4271 14.997 39.3416 15.2111C39.2517 15.4363 39.206 15.68 39.2076 15.926H39.2081Z" fill="#6F7072"/>
<path d="M49.0883 14.3359C48.9377 14.1956 48.7674 14.0831 48.5841 14.0029C48.4299 13.9333 48.2652 13.8965 48.0986 13.8944C47.9249 13.8858 47.7535 13.9407 47.6111 14.0506C47.552 14.0959 47.5039 14.1566 47.4712 14.2273C47.4386 14.2981 47.4223 14.3766 47.4239 14.456C47.42 14.5613 47.4533 14.6642 47.5168 14.7431C47.5879 14.8244 47.6723 14.8905 47.7655 14.9377C47.8767 14.9965 47.9923 15.0443 48.1112 15.0807C48.2389 15.1214 48.3661 15.1645 48.4918 15.2099C48.9146 15.3396 49.2963 15.596 49.5946 15.9506C49.839 16.2932 49.9632 16.7212 49.9444 17.1564C49.9475 17.4669 49.8943 17.7749 49.788 18.0625C49.6892 18.3286 49.5365 18.5664 49.3417 18.7578C49.1303 18.9596 48.8849 19.1136 48.6195 19.2109C48.3058 19.3217 47.9776 19.3752 47.6481 19.3694C46.9021 19.3704 46.1746 19.1135 45.5682 18.635L46.2268 17.2753C46.4297 17.4799 46.6601 17.6487 46.9098 17.776C47.1199 17.8809 47.3476 17.9364 47.5783 17.939C47.7804 17.9571 47.9812 17.8897 48.1398 17.7507C48.1969 17.6972 48.2429 17.6309 48.2748 17.5562C48.3067 17.4816 48.3238 17.4003 48.3249 17.3178C48.3266 17.2296 48.3104 17.1421 48.2775 17.0617C48.2402 16.9827 48.1867 16.9144 48.1211 16.8624C48.0325 16.7937 47.9365 16.7373 47.8353 16.6947C47.718 16.6425 47.5746 16.5862 47.4073 16.5225C47.2013 16.4524 47.012 16.3749 46.8228 16.2957C46.6365 16.2164 46.4633 16.1039 46.3102 15.9626C46.1573 15.8186 46.0344 15.64 45.9499 15.439C45.8499 15.1872 45.8028 14.9138 45.8123 14.6391C45.8089 14.3392 45.8585 14.0414 45.9583 13.7623C46.0505 13.5064 46.1906 13.2747 46.3696 13.0825C46.5547 12.8894 46.7739 12.7404 47.0136 12.6449C47.2872 12.5392 47.5756 12.4871 47.8656 12.4911C48.176 12.4938 48.4849 12.5387 48.7853 12.6248C49.1056 12.7138 49.4146 12.8463 49.7051 13.0193L49.0883 14.3359Z" fill="#000091"/>
<path d="M54.0359 18.0539H51.8303L51.4763 19.1868H49.8302L52.0937 12.6656H53.7747L56.0381 19.1868H54.392L54.0359 18.0539ZM53.6245 16.7648L52.9331 14.5944L52.2391 16.7557L53.6245 16.7648Z" fill="#000091"/>
<path d="M56.3119 19.1874V12.6777H57.8532L60.6944 16.6655V12.6777H62.2273V19.1874H60.6944L57.8532 15.1996V19.1874H56.3119Z" fill="#000091"/>
<path d="M65.3214 14.1029V19.1874H63.7801V14.1029H62.5172V12.6777H66.5842V14.1132L65.3214 14.1029Z" fill="#000091"/>
<path d="M70.2452 14.1029H68.416V15.1939H70.1424V16.6294H68.416V17.7622H70.2452V19.1977H66.8748V12.6777H70.2452V14.1029ZM69.7597 12.9045L68.0417 13.8106L67.3857 13.0768L69.2107 12.0186L69.7597 12.9045Z" fill="#000091"/>
<path d="M76.3149 14.8458C76.1607 14.6217 75.9613 14.4401 75.7325 14.3154C75.5036 14.1908 75.2515 14.1264 74.9962 14.1275C74.7766 14.1248 74.5588 14.1719 74.3565 14.2659C74.1665 14.3527 73.9944 14.4806 73.8502 14.642C73.7058 14.8049 73.5919 14.9975 73.5149 15.2087C73.4332 15.4343 73.3919 15.6751 73.3934 15.9179C73.3914 16.1637 73.4326 16.4076 73.5149 16.6362C73.6713 17.0641 73.9754 17.4063 74.3606 17.5876C74.5557 17.6797 74.7658 17.7268 74.978 17.726C75.2302 17.7223 75.4789 17.6598 75.7076 17.5427C75.9363 17.4255 76.1399 17.2563 76.305 17.0462V19.0513L76.1485 19.1127C75.9328 19.1972 75.7121 19.2653 75.4879 19.3165C75.2886 19.3587 75.086 19.3798 74.8831 19.3797C74.4808 19.3812 74.0823 19.2949 73.7104 19.1259C73.3411 18.9592 73.0047 18.7153 72.7197 18.4076C72.263 17.9154 71.9527 17.282 71.83 16.5914C71.7072 15.9007 71.7779 15.1853 72.0325 14.5398C72.2782 13.9302 72.6796 13.4125 73.1878 13.0497C73.6959 12.6868 74.2889 12.4945 74.8945 12.4962C75.1284 12.496 75.3616 12.5233 75.5901 12.5778C75.8378 12.6348 76.0802 12.7166 76.3144 12.8224L76.3149 14.8458Z" fill="#E1000F"/>
<path d="M76.7263 15.9259C76.7216 15.4591 76.8043 14.9963 76.9692 14.5662C77.126 14.1558 77.3554 13.7838 77.644 13.4718C77.9392 13.1548 78.2889 12.9059 78.6727 12.7397C79.5253 12.3892 80.4641 12.3892 81.3168 12.7397C81.7051 12.905 82.0596 13.1539 82.3596 13.4718C82.6497 13.7831 82.8802 14.1552 83.0374 14.5662C83.3613 15.4329 83.3613 16.4052 83.0374 17.2719C82.8802 17.6829 82.6497 18.055 82.3596 18.3663C82.0596 18.6842 81.7051 18.9331 81.3168 19.0984C80.4641 19.4489 79.5253 19.4489 78.6727 19.0984C78.2889 18.9322 77.9392 18.6833 77.644 18.3663C77.3554 18.0543 77.126 17.6823 76.9692 17.2719C76.806 16.8461 76.7233 16.3881 76.7263 15.9259ZM78.3353 15.9259C78.3336 16.1731 78.3792 16.4179 78.4693 16.6443C78.6431 17.0756 78.9628 17.4152 79.3604 17.5911C79.7723 17.7693 80.2302 17.7693 80.6421 17.5911C80.8393 17.5013 81.0193 17.3713 81.1729 17.2081C81.4149 16.9558 81.58 16.6271 81.6454 16.2672C81.7107 15.9072 81.6732 15.5339 81.5378 15.1984C81.4512 14.9838 81.3272 14.7899 81.1729 14.6277C81.0163 14.4695 80.8341 14.345 80.6358 14.2608C80.2239 14.0826 79.7661 14.0826 79.3542 14.2608C79.1578 14.3478 78.9783 14.4755 78.8255 14.6369C78.6719 14.7991 78.5487 14.9931 78.4631 15.2076C78.3745 15.4336 78.3302 15.6776 78.3333 15.9236L78.3353 15.9259Z" fill="#E1000F"/>
<path d="M83.8633 19.1874V12.6777H85.4025L88.2478 16.654V12.6777H89.7808V19.1874H88.2484L85.4072 15.1996V19.1874H83.8633Z" fill="#E1000F"/>
<path d="M90.625 19.1874V12.6777H92.158L95.0012 16.6655V12.6777H96.5321V19.1874H95.0012L92.158 15.1996V19.1874H90.625Z" fill="#E1000F"/>
<path d="M100.756 14.1029H98.9264V15.1939H100.653V16.6294H98.9264V17.7623H100.756V19.1977H97.3851V12.6777H100.756V14.1029Z" fill="#E1000F"/>
<path d="M105.737 14.843C105.583 14.6188 105.384 14.4372 105.155 14.3125C104.926 14.1879 104.674 14.1235 104.418 14.1246C104.199 14.1219 103.981 14.169 103.779 14.263C103.588 14.3501 103.414 14.4779 103.268 14.6391C103.125 14.8028 103.012 14.9952 102.935 15.2059C102.853 15.4314 102.812 15.6722 102.814 15.915C102.812 16.1608 102.853 16.4048 102.935 16.6333C103.012 16.8458 103.126 17.0393 103.271 17.2026C103.416 17.366 103.59 17.4959 103.781 17.5847C103.978 17.6783 104.191 17.7254 104.406 17.7231C104.659 17.7195 104.907 17.657 105.136 17.5398C105.365 17.4226 105.568 17.2534 105.733 17.0433V19.0484L105.577 19.1098C105.361 19.194 105.141 19.2621 104.916 19.3137C104.717 19.3558 104.515 19.3769 104.312 19.3768C103.909 19.3783 103.509 19.2921 103.137 19.123C102.768 18.9557 102.432 18.7118 102.146 18.4047C101.857 18.0888 101.624 17.716 101.459 17.3057C101.29 16.8679 101.203 16.397 101.203 15.9213C101.203 15.4456 101.29 14.9747 101.459 14.5369C101.705 13.9282 102.107 13.4115 102.615 13.0495C103.123 12.6876 103.716 12.4959 104.321 12.4979C104.555 12.4978 104.788 12.5252 105.017 12.5795C105.262 12.6357 105.502 12.7161 105.735 12.8195L105.737 14.843Z" fill="#E1000F"/>
<path d="M108.876 14.1029V19.1874H107.337V14.1029H106.072V12.6777H110.139V14.1132L108.876 14.1029Z" fill="#E1000F"/>
<path d="M42.9836 21.5663V23.4875C42.9696 23.6965 43.0118 23.9055 43.1051 24.0882C43.1663 24.1739 43.2444 24.2432 43.3335 24.2909C43.4226 24.3386 43.5204 24.3633 43.6195 24.3633C43.7185 24.3633 43.8163 24.3386 43.9054 24.2909C43.9945 24.2432 44.0726 24.1739 44.1338 24.0882C44.2295 23.9064 44.2726 23.6969 44.2574 23.4875V21.5663H44.6933V23.6213C44.6982 23.7734 44.6756 23.925 44.6268 24.0673C44.578 24.2096 44.504 24.3399 44.4091 24.4505C44.3065 24.566 44.1838 24.6578 44.0485 24.7205C43.9132 24.7832 43.7678 24.8154 43.621 24.8154C43.4742 24.8154 43.3289 24.7832 43.1935 24.7205C43.0582 24.6578 42.9356 24.566 42.8329 24.4505C42.738 24.3399 42.6641 24.2096 42.6153 24.0673C42.5665 23.925 42.5439 23.7734 42.5487 23.6213V21.5663H42.9836Z" fill="#706F6F"/>
<path d="M45.1308 22.7445H45.5547V22.9305C45.6189 22.8552 45.6963 22.7949 45.7823 22.7532C45.8682 22.7116 45.9608 22.6895 46.0547 22.6882C46.1475 22.6825 46.2403 22.6999 46.3262 22.7391C46.4121 22.7784 46.4888 22.8385 46.5506 22.915C46.6685 23.092 46.7241 23.3101 46.707 23.5288V24.7616H46.2768V23.6287C46.2883 23.4864 46.2626 23.3433 46.2028 23.2165C46.1702 23.1746 46.1288 23.1422 46.0821 23.1222C46.0354 23.1021 45.985 23.0951 45.9353 23.1016C45.8777 23.0959 45.8197 23.1072 45.7673 23.1342C45.7149 23.1612 45.67 23.2031 45.6371 23.2555C45.5674 23.4195 45.5376 23.6005 45.5505 23.7809V24.7507H45.1266L45.1308 22.7445Z" fill="#706F6F"/>
<path d="M49.1024 23.0868L48.7525 23.2929C48.7004 23.1683 48.6311 23.1069 48.5466 23.1069C48.5099 23.1067 48.4746 23.1221 48.448 23.1499C48.4344 23.1636 48.4236 23.1804 48.4165 23.1991C48.4093 23.2179 48.4061 23.2382 48.4068 23.2585C48.4068 23.3354 48.4871 23.4123 48.6498 23.4853C48.8152 23.5525 48.9684 23.6515 49.1024 23.7775C49.1836 23.8764 49.2258 24.0067 49.2197 24.1399C49.2208 24.2317 49.2039 24.3228 49.1702 24.4068C49.1365 24.4908 49.0867 24.5659 49.0242 24.6268C48.8978 24.7498 48.734 24.8162 48.5654 24.8128C48.4233 24.8179 48.2835 24.7726 48.1664 24.6838C48.0494 24.5949 47.9614 24.467 47.9152 24.319L48.2755 24.1353C48.3068 24.201 48.3447 24.2626 48.3886 24.319C48.4389 24.3702 48.5053 24.3978 48.5737 24.3959C48.7155 24.3959 48.7797 24.3259 48.7797 24.1829C48.7797 24.0991 48.7239 24.0221 48.6149 23.9561L48.4851 23.8884L48.3573 23.8206C48.2591 23.7753 48.1704 23.7083 48.0966 23.6237C48.0299 23.5312 47.9957 23.4154 48.0001 23.2975C47.9982 23.2166 48.0118 23.1362 48.0402 23.0615C48.0687 22.9869 48.1112 22.9197 48.1649 22.8646C48.2196 22.807 48.2841 22.7622 48.3548 22.7326C48.4254 22.703 48.5008 22.6893 48.5763 22.6923C48.69 22.6908 48.8013 22.7278 48.8951 22.7984C48.989 22.869 49.0608 22.9697 49.1009 23.0868H49.1024Z" fill="#706F6F"/>
<path d="M51.0718 23.8579H49.7735C49.7774 24.0052 49.8292 24.146 49.9195 24.2547C49.963 24.302 50.0148 24.3391 50.0717 24.3637C50.1286 24.3882 50.1895 24.3998 50.2506 24.3976C50.3432 24.402 50.4346 24.3734 50.5113 24.3161C50.6037 24.2296 50.6817 24.1261 50.7418 24.0101L51.1 24.2369C51.0498 24.3314 50.9913 24.4203 50.9253 24.5022C50.8644 24.5726 50.7951 24.6336 50.7193 24.6836C50.6491 24.7307 50.5728 24.7659 50.4931 24.7881C50.4062 24.8113 50.317 24.8227 50.2277 24.822C50.1058 24.8275 49.9843 24.8045 49.8712 24.7546C49.758 24.7046 49.6558 24.6287 49.5712 24.532C49.3999 24.32 49.3106 24.0426 49.3225 23.7591C49.3107 23.4772 49.3968 23.2008 49.5634 22.9863C49.7331 22.8006 49.9622 22.6957 50.2014 22.694C50.4407 22.6923 50.671 22.7939 50.8429 22.9771C51.0081 23.1945 51.0913 23.4733 51.0755 23.7563L51.0718 23.8579ZM50.6396 23.4795C50.6257 23.4137 50.5993 23.3519 50.5623 23.298C50.5252 23.2442 50.4783 23.1996 50.4245 23.1671C50.3707 23.1345 50.3113 23.1149 50.2502 23.1094C50.1891 23.1038 50.1275 23.1126 50.0697 23.135C50.0245 23.1508 49.9825 23.1761 49.9461 23.2096C49.9083 23.2412 49.8761 23.2801 49.8512 23.3245C49.8234 23.3727 49.8026 23.4254 49.7897 23.4807L50.6396 23.4795Z" fill="#706F6F"/>
<path d="M51.3402 22.7445H51.7641V22.9236C51.8233 22.8505 51.8929 22.7884 51.9701 22.7399C52.038 22.7038 52.1127 22.6859 52.188 22.6876C52.3123 22.6922 52.4332 22.7337 52.5379 22.8076L52.3445 23.2337C52.2771 23.1759 52.1951 23.1425 52.1098 23.1384C51.8793 23.1384 51.7641 23.3307 51.7641 23.7126V24.7547H51.3402V22.7445Z" fill="#706F6F"/>
<path d="M52.9791 22.7439L53.4526 23.8768L53.9218 22.7439H54.3974L53.4468 24.8943L52.5083 22.7439H52.9791Z" fill="#706F6F"/>
<path d="M54.427 21.9056C54.4281 21.8462 54.4449 21.7884 54.4754 21.7395C54.5059 21.6905 54.5487 21.6525 54.5987 21.63C54.6486 21.6076 54.7034 21.6018 54.7563 21.6133C54.8092 21.6248 54.8579 21.6532 54.8963 21.6948C54.9222 21.7224 54.9427 21.7555 54.9565 21.7922C54.9703 21.8288 54.9772 21.8682 54.9766 21.9079C54.9787 21.9498 54.9726 21.9917 54.9587 22.0308C54.9449 22.0699 54.9236 22.1053 54.8963 22.1347C54.8714 22.1633 54.8413 22.186 54.808 22.2012C54.7747 22.2164 54.7389 22.2239 54.7029 22.2231C54.6664 22.2234 54.6302 22.2157 54.5965 22.2004C54.5628 22.1851 54.5321 22.1625 54.5065 22.134C54.4808 22.1055 54.4605 22.0716 54.4469 22.0343C54.4332 21.9971 54.4265 21.9572 54.427 21.917V21.9056ZM54.9125 22.7439V24.7536H54.4907V22.7439H54.9125Z" fill="#706F6F"/>
<path d="M56.6779 22.8301V23.4485C56.6073 23.3432 56.5202 23.2526 56.4208 23.1809C56.3396 23.1266 56.2463 23.0984 56.1513 23.0994C56.0768 23.0974 56.0028 23.1129 55.9343 23.145C55.8658 23.1771 55.8043 23.225 55.7539 23.2854C55.6544 23.4145 55.5997 23.5783 55.5997 23.7477C55.5997 23.917 55.6544 24.0808 55.7539 24.2099C55.8033 24.2695 55.8639 24.3166 55.9314 24.3479C55.9989 24.3792 56.0718 24.394 56.145 24.3913C56.2388 24.394 56.3317 24.3699 56.4146 24.3213C56.5157 24.247 56.6048 24.1544 56.6779 24.0474V24.6618C56.5197 24.756 56.3431 24.8065 56.1633 24.8088C56.0331 24.8125 55.9035 24.7878 55.7821 24.736C55.6606 24.6843 55.5497 24.6066 55.4557 24.5073C55.3647 24.408 55.2926 24.2898 55.2435 24.1595C55.1944 24.0292 55.1693 23.8895 55.1697 23.7484C55.1701 23.6074 55.1959 23.4678 55.2457 23.3378C55.2956 23.2079 55.3684 23.0901 55.4599 22.9914C55.5528 22.89 55.6634 22.8103 55.785 22.7569C55.9065 22.7035 56.0366 22.6776 56.1674 22.6808C56.3463 22.6819 56.522 22.7333 56.6779 22.8301Z" fill="#706F6F"/>
<path d="M58.5608 23.859H57.25C57.2547 24.0061 57.3064 24.1466 57.396 24.2558C57.4397 24.3034 57.4918 24.3406 57.5491 24.3652C57.6064 24.3898 57.6677 24.4012 57.7291 24.3987C57.8217 24.4024 57.9129 24.3739 57.9899 24.3172C58.0817 24.2302 58.1597 24.1267 58.2203 24.0112L58.5764 24.238C58.5263 24.3325 58.4678 24.4214 58.4018 24.5033C58.3446 24.5735 58.2788 24.6346 58.2062 24.6847C58.1353 24.732 58.0583 24.7672 57.9779 24.7892C57.8917 24.8125 57.8033 24.8239 57.7146 24.8231C57.5924 24.8287 57.4706 24.8057 57.3571 24.7557C57.2436 24.7058 57.141 24.6299 57.056 24.5331C56.8853 24.3208 56.7966 24.0435 56.8089 23.7602C56.797 23.4783 56.8831 23.2019 57.0498 22.9874C57.2205 22.8028 57.4503 22.6995 57.6895 22.6995C57.9288 22.6995 58.1585 22.8028 58.3293 22.9874C58.4937 23.2052 58.5769 23.4837 58.5618 23.7666L58.5608 23.859ZM58.1265 23.4806C58.1126 23.4148 58.0864 23.3529 58.0493 23.299C58.0123 23.2451 57.9653 23.2004 57.9115 23.1679C57.8577 23.1354 57.7983 23.1157 57.7371 23.1103C57.676 23.1048 57.6144 23.1136 57.5566 23.1361C57.5114 23.1519 57.4694 23.1772 57.433 23.2107C57.3956 23.2427 57.3635 23.2816 57.3381 23.3256C57.311 23.3739 57.2909 23.4266 57.2787 23.4818L58.1265 23.4806Z" fill="#706F6F"/>
<path d="M61.1731 21.2671H61.597V24.7565H61.1731V24.5458C61.1001 24.6303 61.0124 24.6978 60.9152 24.7442C60.8179 24.7905 60.7132 24.8148 60.6073 24.8156C60.4909 24.8163 60.3757 24.7898 60.2693 24.7379C60.1628 24.6859 60.0676 24.6097 59.99 24.5142C59.8241 24.2998 59.7368 24.0251 59.7449 23.7436C59.7376 23.4678 59.8251 23.1992 59.99 22.9914C60.0661 22.8937 60.161 22.8158 60.2677 22.7633C60.3745 22.7108 60.4904 22.685 60.6073 22.6877C60.716 22.6895 60.8231 22.7162 60.9218 22.7661C61.0206 22.816 61.1088 22.8881 61.1809 22.9776L61.1731 21.2671ZM60.1709 23.7436C60.1643 23.9142 60.2139 24.0816 60.3106 24.215C60.3551 24.2738 60.4109 24.3209 60.4741 24.3527C60.5373 24.3845 60.6062 24.4002 60.6756 24.3988C60.7467 24.4019 60.8175 24.3877 60.8829 24.3571C60.9484 24.3265 61.0068 24.2803 61.0542 24.2219C61.149 24.0887 61.2005 23.9243 61.2005 23.7551C61.2005 23.5858 61.149 23.4215 61.0542 23.2883C61.0087 23.2279 60.9514 23.1796 60.8865 23.1469C60.8217 23.1143 60.751 23.0983 60.6798 23.0999C60.6104 23.0986 60.5415 23.1144 60.4784 23.1462C60.4152 23.178 60.3593 23.225 60.3148 23.2837C60.216 23.4114 60.1646 23.576 60.1709 23.7436Z" fill="#706F6F"/>
<path d="M62.3588 22.7439V23.8992C62.3588 24.2322 62.4782 24.3976 62.717 24.3976C62.9558 24.3976 63.0752 24.2322 63.0752 23.8992V22.7439H63.4991V23.9084C63.5017 24.0505 63.4828 24.1922 63.4433 24.3275C63.405 24.4368 63.3429 24.534 63.2624 24.6106C63.1095 24.7502 62.9154 24.8227 62.717 24.8145C62.5199 24.8227 62.327 24.75 62.1758 24.6106C62.0935 24.5343 62.0293 24.4371 61.9886 24.3275C61.9482 24.1925 61.9305 24.0504 61.9364 23.9084V22.7439H62.3588Z" fill="#706F6F"/>
<path d="M64.8318 22.7445H65.2541V22.9306C65.3138 22.8562 65.3832 22.7922 65.4601 22.7405C65.5322 22.7036 65.6111 22.6857 65.6906 22.6883C65.7888 22.6864 65.8858 22.713 65.9718 22.7655C66.0577 22.8181 66.1296 22.8946 66.1802 22.9874C66.2405 22.8922 66.3213 22.8151 66.4154 22.7629C66.5095 22.7106 66.614 22.685 66.7193 22.6883C67.1307 22.6883 67.3366 22.9645 67.3366 23.5128V24.7565H66.9127V23.6397C66.9214 23.4994 66.8996 23.3589 66.8491 23.2297C66.8285 23.1898 66.7984 23.1568 66.7622 23.1341C66.726 23.1113 66.6849 23.0998 66.6432 23.1005C66.5927 23.0969 66.5423 23.1085 66.4973 23.1341C66.4524 23.1597 66.4147 23.1983 66.3882 23.2458C66.328 23.3872 66.3012 23.543 66.31 23.6989V24.7387H65.884V23.6282C65.884 23.2682 65.7912 23.0891 65.604 23.0891C65.5525 23.0854 65.5012 23.0972 65.4553 23.1231C65.4094 23.1489 65.3707 23.188 65.3433 23.2361C65.2822 23.3772 65.2545 23.533 65.263 23.6891V24.729H64.8391L64.8318 22.7445Z" fill="#706F6F"/>
<path d="M67.6177 21.9062C67.6177 21.867 67.6247 21.8281 67.6385 21.792C67.6523 21.7558 67.6725 21.723 67.698 21.6955C67.723 21.667 67.7531 21.6444 67.7864 21.6292C67.8197 21.614 67.8554 21.6065 67.8914 21.6071C67.9278 21.6066 67.9638 21.6141 67.9974 21.6293C68.031 21.6445 68.0615 21.667 68.087 21.6955C68.113 21.723 68.1336 21.7561 68.1474 21.7928C68.1612 21.8294 68.168 21.8688 68.1673 21.9085C68.1693 21.9505 68.1632 21.9924 68.1494 22.0315C68.1356 22.0706 68.1143 22.106 68.087 22.1354C68.0619 22.1639 68.0319 22.1864 67.9986 22.2017C67.9653 22.2169 67.9296 22.2244 67.8935 22.2238C67.8571 22.2241 67.8209 22.2164 67.7872 22.2011C67.7534 22.1858 67.7228 22.1632 67.6971 22.1347C67.6714 22.1062 67.6512 22.0723 67.6375 22.035C67.6239 21.9978 67.6172 21.9579 67.6177 21.9177V21.9062ZM68.1031 22.7446V24.7543H67.6917V22.7446H68.1031Z" fill="#706F6F"/>
<path d="M68.4447 22.7439H68.8686V22.93C68.9329 22.8546 69.0103 22.7943 69.0962 22.7527C69.1821 22.711 69.2748 22.6889 69.3686 22.6877C69.4617 22.6828 69.5545 22.7007 69.6406 22.7399C69.7267 22.7791 69.8038 22.8387 69.8666 22.9145C69.9845 23.0915 70.0401 23.3096 70.023 23.5283V24.7611H69.597V23.6282C69.6085 23.4858 69.5828 23.3428 69.523 23.2159C69.4904 23.174 69.449 23.1416 69.4023 23.1216C69.3556 23.1016 69.3052 23.0945 69.2555 23.1011C69.1979 23.0954 69.1399 23.1066 69.0875 23.1336C69.0351 23.1607 68.9901 23.2025 68.9573 23.255C68.8876 23.4189 68.8578 23.5999 68.8707 23.7804V24.7502H68.4468L68.4447 22.7439Z" fill="#706F6F"/>
<path d="M70.2961 21.9056C70.2961 21.825 70.3252 21.7477 70.3769 21.6908C70.4287 21.6338 70.4988 21.6018 70.572 21.6018C70.6451 21.6018 70.7153 21.6338 70.767 21.6908C70.8187 21.7477 70.8478 21.825 70.8478 21.9056C70.8495 21.9476 70.843 21.9896 70.8288 22.0287C70.8146 22.0678 70.793 22.1032 70.7654 22.1324C70.7405 22.161 70.7104 22.1837 70.6771 22.1989C70.6438 22.2141 70.608 22.2216 70.572 22.2208C70.4986 22.2202 70.4285 22.1877 70.3768 22.1303C70.3251 22.073 70.2961 21.9955 70.2961 21.9147V21.9056ZM70.7837 22.7439V24.7536H70.3598V22.7439H70.7837Z" fill="#706F6F"/>
<path d="M72.1879 23.0868L71.8401 23.2929C71.7843 23.1683 71.7166 23.1069 71.6342 23.1069C71.5975 23.1066 71.5622 23.1221 71.5356 23.1499C71.5223 23.1639 71.5117 23.1807 71.5046 23.1994C71.4975 23.2181 71.4941 23.2382 71.4944 23.2585C71.4944 23.3354 71.5747 23.4123 71.7374 23.4853C71.9068 23.5514 72.0638 23.6512 72.2004 23.7798C72.2816 23.8787 72.3238 24.009 72.3177 24.1421C72.3189 24.234 72.302 24.3251 72.2682 24.4091C72.2345 24.4931 72.1847 24.5681 72.1222 24.6291C71.9959 24.7522 71.8321 24.8186 71.6634 24.8151C71.5213 24.8202 71.3815 24.7749 71.2645 24.6861C71.1474 24.5972 71.0594 24.4693 71.0132 24.3213L71.3735 24.1375C71.4045 24.204 71.4433 24.2658 71.4887 24.3213C71.5381 24.3725 71.6039 24.4002 71.6717 24.3982C71.8135 24.3982 71.8777 24.3282 71.8777 24.1852C71.8777 24.1014 71.8219 24.0244 71.7129 23.9584L71.5852 23.8906C71.5428 23.8711 71.4995 23.8485 71.4553 23.8229C71.3571 23.7776 71.2684 23.7105 71.1946 23.6259C71.128 23.5335 71.0937 23.4177 71.0982 23.2998C71.0962 23.2189 71.1098 23.1384 71.1383 23.0638C71.1667 22.9892 71.2092 22.922 71.2629 22.8668C71.3177 22.8094 71.3822 22.7646 71.4529 22.735C71.5235 22.7055 71.5988 22.6917 71.6743 22.6946C71.7857 22.6956 71.8942 22.7335 71.9856 22.8035C72.0771 22.8735 72.1472 22.9722 72.1869 23.0868H72.1879Z" fill="#706F6F"/>
<path d="M72.9278 23.1764V24.7623H72.506V23.1764H72.3251V22.7434H72.506V22.005H72.9278V22.7434H73.2568V23.1764H72.9278Z" fill="#706F6F"/>
<path d="M75.017 23.8579H73.7078C73.7133 24.0052 73.7657 24.1457 73.8559 24.2547C73.8992 24.3022 73.951 24.3395 74.0079 24.3641C74.0649 24.3886 74.1258 24.4001 74.187 24.3977C74.2795 24.4014 74.3707 24.3728 74.4477 24.3161C74.5375 24.2275 74.6126 24.1224 74.6698 24.0055L75.0259 24.2323C74.9764 24.3273 74.9179 24.4162 74.8512 24.4976C74.7941 24.5678 74.7283 24.6289 74.6557 24.679C74.585 24.7267 74.5079 24.7619 74.4273 24.7835C74.3412 24.8069 74.2527 24.8182 74.164 24.8174C74.0419 24.823 73.9201 24.8 73.8065 24.7501C73.693 24.7001 73.5904 24.6242 73.5055 24.5274C73.3347 24.3151 73.2461 24.0378 73.2583 23.7546C73.2465 23.4726 73.3326 23.1962 73.4992 22.9817C73.67 22.7972 73.8997 22.6938 74.139 22.6938C74.3783 22.6938 74.608 22.7972 74.7788 22.9817C74.9432 23.1996 75.0263 23.4781 75.0113 23.7609L75.017 23.8579ZM73.5482 21.7506L73.9435 21.5238L74.4649 22.276L74.2323 22.4322L73.5482 21.7506ZM74.577 23.4795C74.5631 23.4137 74.5369 23.3518 74.4998 23.2979C74.4628 23.244 74.4158 23.1993 74.362 23.1668C74.3082 23.1343 74.2488 23.1147 74.1876 23.1092C74.1265 23.1037 74.0649 23.1125 74.0071 23.135C73.9619 23.1508 73.9199 23.1762 73.8835 23.2096C73.8463 23.2417 73.8144 23.2805 73.7891 23.3245C73.7628 23.3733 73.7428 23.4258 73.7297 23.4807L74.577 23.4795Z" fill="#706F6F"/>
<path d="M75.2861 22.7434H75.7079V22.9225C75.7671 22.8494 75.8367 22.7874 75.9139 22.7388C75.9811 22.7027 76.0551 22.6848 76.1298 22.6865C76.2541 22.6908 76.3751 22.7323 76.4796 22.8065L76.2862 23.2326C76.2189 23.1748 76.1369 23.1415 76.0516 23.1373C75.8211 23.1373 75.7059 23.3296 75.7059 23.7115V24.7536H75.2861V22.7434Z" fill="#706F6F"/>
<path d="M78.1664 23.859H76.8556C76.8594 24.0063 76.9113 24.1471 77.0016 24.2558C77.0453 24.3034 77.0974 24.3407 77.1547 24.3652C77.2121 24.3898 77.2733 24.4012 77.3348 24.3988C77.4274 24.4032 77.5188 24.3746 77.5955 24.3172C77.6886 24.2309 77.7673 24.1274 77.828 24.0112L78.1842 24.238C78.134 24.3325 78.0755 24.4214 78.0095 24.5033C77.9486 24.5737 77.8793 24.6348 77.8035 24.6847C77.7333 24.7318 77.657 24.767 77.5772 24.7892C77.4904 24.8126 77.4012 24.8239 77.3118 24.8231C77.19 24.8287 77.0685 24.8057 76.9554 24.7557C76.8422 24.7057 76.7399 24.6299 76.6554 24.5331C76.4846 24.3208 76.396 24.0435 76.4082 23.7603C76.3978 23.4789 76.483 23.2034 76.647 22.9874C76.8184 22.8033 77.0484 22.7002 77.2878 22.7002C77.5273 22.7002 77.7573 22.8033 77.9287 22.9874C78.0931 23.2052 78.1762 23.4838 78.1612 23.7666L78.1664 23.859ZM77.7321 23.4806C77.7183 23.4148 77.692 23.3529 77.6549 23.299C77.6179 23.2451 77.5709 23.2005 77.5171 23.1679C77.4634 23.1354 77.4039 23.1158 77.3428 23.1103C77.2816 23.1048 77.22 23.1136 77.1622 23.1361C77.117 23.1519 77.075 23.1773 77.0386 23.2108C77.0014 23.2428 76.9695 23.2816 76.9442 23.3256C76.9162 23.3734 76.8961 23.4263 76.8848 23.4818L77.7321 23.4806Z" fill="#706F6F"/>
<path d="M80.8553 22.8301V23.4485C80.7832 23.3433 80.695 23.2527 80.5946 23.1809C80.5149 23.1295 80.4237 23.1036 80.3313 23.1062C80.2568 23.1038 80.1827 23.1192 80.1141 23.1513C80.0456 23.1834 79.9841 23.2315 79.934 23.2923C79.8302 23.4151 79.7741 23.5776 79.7776 23.7453C79.7712 23.9157 79.825 24.0822 79.9277 24.2099C79.9776 24.2694 80.0385 24.3164 80.1064 24.3477C80.1742 24.379 80.2474 24.3939 80.3209 24.3913C80.4147 24.3937 80.5075 24.3696 80.5904 24.3212C80.6916 24.247 80.7806 24.1543 80.8538 24.0474V24.6617C80.6956 24.756 80.519 24.8064 80.3391 24.8087C80.0757 24.8156 79.8205 24.7072 79.6295 24.5073C79.5372 24.4101 79.4642 24.2929 79.4153 24.163C79.3664 24.0331 79.3425 23.8934 79.3453 23.7528C79.3427 23.6108 79.367 23.4698 79.4165 23.3388C79.4661 23.2077 79.5398 23.0894 79.6331 22.9914C79.7266 22.8901 79.8376 22.8105 79.9595 22.7571C80.0813 22.7038 80.2116 22.6778 80.3428 22.6808C80.5217 22.6822 80.6973 22.7335 80.8532 22.8301H80.8553Z" fill="#706F6F"/>
<path d="M81.1729 21.2671H81.5947V22.9122C81.7283 22.7694 81.9065 22.6883 82.0926 22.6854C82.1852 22.6819 82.2774 22.7004 82.3629 22.7396C82.4484 22.7787 82.5254 22.8375 82.5885 22.9122C82.7065 23.0891 82.762 23.3073 82.7449 23.526V24.7588H82.3231V23.569C82.3321 23.4457 82.3047 23.3224 82.2449 23.2176C82.2136 23.1793 82.1747 23.1495 82.1312 23.1307C82.0876 23.1118 82.0407 23.1044 81.9941 23.1091C81.9345 23.1024 81.8743 23.1128 81.8195 23.1393C81.7646 23.1659 81.717 23.2077 81.6812 23.2607C81.61 23.4241 81.5794 23.6054 81.5926 23.7861V24.7582H81.1708L81.1729 21.2671Z" fill="#706F6F"/>
<path d="M84.4359 22.7446H84.8598V24.7543H84.4359V24.5436C84.3579 24.6314 84.2643 24.7007 84.1609 24.747C84.0575 24.7933 83.9466 24.8157 83.835 24.8127C83.7234 24.8098 83.6136 24.7815 83.5124 24.7298C83.4111 24.6781 83.3206 24.6039 83.2466 24.512C83.0807 24.2976 82.9934 24.0229 83.0015 23.7414C82.9938 23.4649 83.0814 23.1954 83.2466 22.9869C83.3233 22.8901 83.4183 22.813 83.525 22.761C83.6316 22.7089 83.7473 22.6831 83.8639 22.6854C83.9726 22.6873 84.0797 22.714 84.1784 22.7639C84.2772 22.8138 84.3654 22.8859 84.4375 22.9754L84.4359 22.7446ZM83.4338 23.7437C83.4261 23.9144 83.4759 24.0822 83.5735 24.2151C83.6179 24.2739 83.6738 24.321 83.737 24.3528C83.8002 24.3846 83.869 24.4003 83.9385 24.3988C84.0095 24.4017 84.0802 24.3873 84.1456 24.3567C84.211 24.3262 84.2695 24.2802 84.317 24.222C84.4118 24.0888 84.4634 23.9244 84.4634 23.7552C84.4634 23.5859 84.4118 23.4216 84.317 23.2884C84.2707 23.2295 84.2131 23.1826 84.1484 23.1513C84.0836 23.1199 84.0134 23.1047 83.9427 23.1069C83.8732 23.1054 83.8043 23.1212 83.7411 23.153C83.678 23.1848 83.6221 23.2318 83.5777 23.2906C83.4802 23.4167 83.4289 23.5782 83.4338 23.7437Z" fill="#706F6F"/>
<path d="M85.2019 22.7445H85.6242V22.9236C85.6834 22.8505 85.753 22.7885 85.8302 22.7399C85.8981 22.7038 85.9728 22.6859 86.0481 22.6876C86.1724 22.6922 86.2933 22.7337 86.398 22.8076L86.2046 23.2337C86.1372 23.1759 86.0552 23.1425 85.9699 23.1384C85.7395 23.1384 85.6242 23.3307 85.6242 23.7125V24.7547H85.2024L85.2019 22.7445Z" fill="#706F6F"/>
<path d="M88.2129 24.7077V24.9592C88.2106 25.0232 88.2031 25.0868 88.1905 25.1493C88.1626 25.2943 88.1018 25.4292 88.0138 25.5414C87.9287 25.6464 87.8234 25.7292 87.7056 25.7836C87.5878 25.838 87.4604 25.8628 87.3328 25.8561C87.1136 25.863 86.8996 25.7824 86.7301 25.6293C86.6479 25.5522 86.5807 25.4577 86.5322 25.3515C86.4838 25.2453 86.4551 25.1295 86.448 25.0109H86.8719C86.8818 25.0928 86.9101 25.1708 86.9543 25.2377C86.9992 25.3012 87.0575 25.3516 87.1243 25.3844C87.191 25.4172 87.2641 25.4315 87.337 25.426C87.6457 25.426 87.8 25.2199 87.8 24.803V24.5222C87.7261 24.6108 87.6365 24.6817 87.5366 24.7304C87.4368 24.7791 87.3289 24.8046 87.2197 24.8053C87.1029 24.8098 86.9868 24.7853 86.8799 24.7335C86.773 24.6817 86.6781 24.604 86.6023 24.5062C86.4389 24.2977 86.3529 24.0291 86.3614 23.754C86.3543 23.4832 86.4328 23.2181 86.5835 23.0041C86.6589 22.8987 86.7557 22.8143 86.8661 22.7577C86.9765 22.701 87.0974 22.6737 87.2191 22.6779C87.3278 22.6756 87.4355 22.6998 87.5347 22.7487C87.6339 22.7977 87.722 22.8702 87.7927 22.961V22.7342H88.2145L88.2129 24.7077ZM87.8016 23.754C87.8089 23.5843 87.7583 23.4178 87.6597 23.2871C87.6141 23.2286 87.5572 23.182 87.4931 23.1506C87.4291 23.1192 87.3596 23.1039 87.2895 23.1057C87.2167 23.1025 87.1442 23.1188 87.0783 23.1531C87.0124 23.1874 86.955 23.2387 86.911 23.3026C86.8289 23.4364 86.785 23.5942 86.785 23.7557C86.785 23.9172 86.8289 24.0749 86.911 24.2087C86.9559 24.2711 87.0136 24.3209 87.0795 24.354C87.1453 24.387 87.2173 24.4024 87.2895 24.3988C87.3626 24.4023 87.4353 24.3867 87.5019 24.3532C87.5684 24.3198 87.6268 24.2695 87.6722 24.2064C87.7647 24.0778 87.8127 23.9173 87.8078 23.7534L87.8016 23.754Z" fill="#706F6F"/>
<path d="M90.2188 23.8578H88.908C88.9127 24.0049 88.9644 24.1454 89.0539 24.2546C89.0977 24.3022 89.1498 24.3395 89.2071 24.364C89.2644 24.3886 89.3257 24.4 89.3871 24.3976C89.4797 24.402 89.5712 24.3734 89.6478 24.316C89.741 24.2298 89.8197 24.1262 89.8804 24.01L90.2365 24.2368C90.1863 24.3313 90.1278 24.4202 90.0618 24.5021C90.001 24.5725 89.9317 24.6336 89.8559 24.6835C89.7859 24.7312 89.7095 24.7664 89.6296 24.788C89.5427 24.8114 89.4536 24.8228 89.3642 24.8219C89.2424 24.8275 89.1209 24.8045 89.0077 24.7545C88.8945 24.7045 88.7923 24.6287 88.7077 24.5319C88.537 24.3197 88.4483 24.0423 88.4606 23.7591C88.4502 23.4777 88.5353 23.2022 88.6994 22.9862C88.8708 22.8021 89.1008 22.699 89.3402 22.699C89.5797 22.699 89.8096 22.8021 89.981 22.9862C90.1454 23.2041 90.2286 23.4826 90.2136 23.7654L90.2188 23.8578ZM89.7844 23.4794C89.7718 23.4127 89.7463 23.3497 89.7097 23.2946C89.6731 23.2396 89.6263 23.1938 89.5723 23.1603C89.5184 23.1268 89.4585 23.1064 89.3968 23.1004C89.3351 23.0945 89.273 23.1031 89.2145 23.1257C89.1693 23.1415 89.1274 23.1669 89.091 23.2004C89.0536 23.2324 89.0215 23.2712 88.9961 23.3152C88.9681 23.363 88.948 23.4159 88.9366 23.4714L89.7844 23.4794ZM89.9904 21.7505L89.3074 22.4304L89.0706 22.2765L89.5853 21.5243L89.9904 21.7505Z" fill="#706F6F"/>
<path d="M92.83 21.2671H93.2539V24.7565H92.83V24.5458C92.7569 24.6301 92.6692 24.6974 92.572 24.7438C92.4748 24.7902 92.3702 24.8146 92.2643 24.8156C92.1479 24.8163 92.0327 24.7898 91.9262 24.7379C91.8198 24.6859 91.7246 24.6097 91.647 24.5142C91.4811 24.2998 91.3938 24.0251 91.4019 23.7436C91.3946 23.4678 91.4821 23.1992 91.647 22.9914C91.723 22.8936 91.8179 22.8156 91.9246 22.7631C92.0314 22.7106 92.1474 22.6848 92.2643 22.6877C92.3729 22.6895 92.4801 22.7162 92.5788 22.7661C92.6776 22.816 92.7658 22.8881 92.8379 22.9776L92.83 21.2671ZM91.8279 23.7436C91.8203 23.9143 91.87 24.0821 91.9676 24.215C92.012 24.2738 92.0679 24.3209 92.1311 24.3527C92.1943 24.3845 92.2632 24.4002 92.3326 24.3988C92.4036 24.4016 92.4743 24.3872 92.5397 24.3567C92.6051 24.3261 92.6636 24.2801 92.7111 24.2219C92.8059 24.0887 92.8575 23.9243 92.8575 23.7551C92.8575 23.5858 92.8059 23.4215 92.7111 23.2883C92.6648 23.2294 92.6072 23.1825 92.5425 23.1512C92.4777 23.1198 92.4075 23.1046 92.3368 23.1068C92.2673 23.1053 92.1984 23.1211 92.1353 23.1529C92.0721 23.1847 92.0162 23.2317 91.9718 23.2906C91.8744 23.4166 91.8231 23.5781 91.8279 23.7436Z" fill="#706F6F"/>
<path d="M95.2599 23.8579H93.949C93.9529 24.0052 94.0047 24.146 94.095 24.2547C94.1388 24.3023 94.1909 24.3395 94.2482 24.3641C94.3055 24.3887 94.3668 24.4001 94.4282 24.3976C94.5208 24.4021 94.6123 24.3735 94.6889 24.3161C94.7821 24.2298 94.8608 24.1262 94.9215 24.0101L95.2776 24.2369C95.2274 24.3314 95.1689 24.4203 95.1029 24.5022C95.042 24.5726 94.9728 24.6336 94.897 24.6836C94.8267 24.7307 94.7504 24.7659 94.6707 24.7881C94.5838 24.8113 94.4947 24.8227 94.4053 24.822C94.2835 24.8275 94.162 24.8045 94.0488 24.7545C93.9357 24.7045 93.8334 24.6287 93.7488 24.532C93.5784 24.3195 93.4897 24.0423 93.5017 23.7591C93.4913 23.4778 93.5765 23.2023 93.7405 22.9863C93.9102 22.8006 94.1393 22.6957 94.3786 22.694C94.6178 22.6923 94.8481 22.7939 95.02 22.9771C95.1859 23.1942 95.2699 23.473 95.2547 23.7563L95.2599 23.8579ZM94.8318 23.4795C94.8183 23.4128 94.7921 23.35 94.7551 23.2952C94.7181 23.2404 94.6709 23.1949 94.6168 23.1615C94.5627 23.1281 94.5028 23.1077 94.441 23.1015C94.3792 23.0954 94.3169 23.1036 94.2582 23.1258C94.213 23.1416 94.1711 23.167 94.1347 23.2004C94.0973 23.2324 94.0652 23.2713 94.0398 23.3153C94.0118 23.3631 93.9917 23.416 93.9803 23.4715L94.8318 23.4795Z" fill="#706F6F"/>
<path d="M96.9456 21.2671V24.7565H96.5342V21.2671H96.9456Z" fill="#706F6F"/>
<path d="M98.6345 22.7445H99.0584V24.7542H98.6345V24.5435C98.5568 24.6316 98.4634 24.7011 98.3602 24.7476C98.2569 24.7941 98.1461 24.8165 98.0346 24.8136C97.9231 24.8106 97.8133 24.7823 97.7122 24.7304C97.6112 24.6784 97.5209 24.6041 97.4472 24.5119C97.2808 24.2978 97.1929 24.023 97.2006 23.7413C97.1925 23.4644 97.2807 23.1945 97.4472 22.9868C97.5238 22.8898 97.6187 22.8125 97.7254 22.7604C97.8321 22.7083 97.9479 22.6827 98.0646 22.6854C98.1733 22.6867 98.2805 22.7133 98.3793 22.7632C98.4781 22.8132 98.5663 22.8854 98.6381 22.9753L98.6345 22.7445ZM97.6323 23.7436C97.6253 23.9146 97.6758 24.0824 97.7741 24.215C97.8184 24.2741 97.8742 24.3213 97.9374 24.3532C98.0006 24.385 98.0696 24.4006 98.1391 24.3988C98.2101 24.4016 98.2808 24.3872 98.3462 24.3567C98.4117 24.3261 98.4702 24.2801 98.5177 24.2219C98.6111 24.0881 98.6618 23.9239 98.6618 23.7551C98.6618 23.5863 98.6111 23.4221 98.5177 23.2883C98.4709 23.2293 98.413 23.1825 98.3479 23.1511C98.2828 23.1198 98.2122 23.1046 98.1412 23.1068C98.0718 23.1058 98.0031 23.1218 97.94 23.1536C97.8769 23.1853 97.8209 23.2321 97.7762 23.2906C97.6798 23.4173 97.6287 23.5784 97.6323 23.7436Z" fill="#706F6F"/>
<path d="M102.114 22.0394L101.758 22.2662C101.714 22.168 101.649 22.0832 101.568 22.0193C101.496 21.9708 101.412 21.9472 101.327 21.9515C101.217 21.9471 101.109 21.988 101.025 22.0663C100.986 22.0996 100.955 22.1423 100.934 22.191C100.913 22.2397 100.903 22.2932 100.904 22.3471C100.904 22.501 101.008 22.6279 101.221 22.7232L101.508 22.8524C101.707 22.9308 101.885 23.0634 102.025 23.2377C102.136 23.3963 102.193 23.5927 102.187 23.793C102.191 23.9278 102.169 24.062 102.123 24.1872C102.078 24.3123 102.009 24.4258 101.922 24.5205C101.834 24.6156 101.73 24.6903 101.615 24.7401C101.501 24.79 101.378 24.8139 101.255 24.8104C101.028 24.8168 100.808 24.7286 100.638 24.5635C100.468 24.3774 100.361 24.1328 100.335 23.8705L100.779 23.762C100.783 23.8996 100.819 24.0339 100.884 24.1518C100.927 24.2109 100.98 24.2594 101.041 24.2944C101.102 24.3295 101.169 24.3502 101.238 24.3553C101.306 24.3604 101.375 24.3498 101.44 24.3242C101.505 24.2986 101.564 24.2585 101.614 24.2064C101.659 24.1564 101.694 24.0969 101.717 24.0314C101.74 23.966 101.751 23.896 101.749 23.8257C101.75 23.7673 101.742 23.7092 101.727 23.6534C101.71 23.6012 101.685 23.5527 101.653 23.5105C101.615 23.463 101.571 23.4218 101.523 23.3881C101.464 23.3451 101.401 23.3088 101.336 23.2796L101.056 23.1527C100.661 22.9667 100.461 22.6997 100.461 22.3414C100.459 22.2274 100.48 22.1142 100.522 22.01C100.564 21.9058 100.626 21.8131 100.704 21.7385C100.875 21.5752 101.096 21.4887 101.322 21.4962C101.487 21.494 101.649 21.544 101.79 21.6403C101.93 21.7365 102.043 21.875 102.114 22.0394Z" fill="#706F6F"/>
<path d="M103.791 22.7446H104.215V24.7543H103.791V24.5436C103.713 24.6314 103.62 24.7007 103.516 24.747C103.413 24.7933 103.302 24.8157 103.19 24.8127C103.079 24.8098 102.969 24.7815 102.868 24.7298C102.766 24.6781 102.676 24.6039 102.602 24.512C102.436 24.2976 102.349 24.0229 102.357 23.7414C102.349 23.4649 102.437 23.1954 102.602 22.9869C102.679 22.8901 102.774 22.813 102.88 22.761C102.987 22.7089 103.103 22.6831 103.219 22.6854C103.328 22.6873 103.435 22.714 103.534 22.7639C103.633 22.8138 103.721 22.8859 103.793 22.9754L103.791 22.7446ZM102.789 23.7437C102.782 23.9143 102.832 24.0817 102.929 24.2151C102.973 24.2739 103.029 24.321 103.092 24.3528C103.155 24.3846 103.224 24.4003 103.294 24.3988C103.365 24.4048 103.437 24.3931 103.504 24.3645C103.571 24.3358 103.632 24.2911 103.681 24.2335C103.776 24.1003 103.827 23.9359 103.827 23.7667C103.827 23.5974 103.776 23.4331 103.681 23.2998C103.635 23.2407 103.577 23.1936 103.512 23.1622C103.447 23.1308 103.377 23.1159 103.306 23.1184C103.237 23.1169 103.168 23.1326 103.105 23.1645C103.042 23.1963 102.986 23.2433 102.941 23.3021C102.844 23.4242 102.79 23.5812 102.791 23.7437H102.789Z" fill="#706F6F"/>
<path d="M104.556 22.7434H104.979V22.9294C105.043 22.854 105.12 22.7937 105.206 22.752C105.291 22.7103 105.384 22.6883 105.477 22.6871C105.57 22.6821 105.663 22.6999 105.749 22.7391C105.836 22.7783 105.913 22.838 105.975 22.9139C106.093 23.0909 106.149 23.309 106.132 23.5277V24.7605H105.708V23.6276C105.72 23.4849 105.693 23.3415 105.632 23.2153C105.6 23.1735 105.559 23.1411 105.512 23.121C105.466 23.101 105.416 23.0939 105.366 23.1005C105.309 23.0946 105.251 23.1057 105.198 23.1327C105.146 23.1598 105.101 23.2018 105.068 23.2544C104.998 23.4183 104.969 23.5994 104.982 23.7798V24.7496H104.558L104.556 22.7434Z" fill="#706F6F"/>
<path d="M106.905 23.1764V24.7623H106.494V23.1764H106.313V22.7434H106.494V22.005H106.905V22.7434H107.234V23.1764H106.905Z" fill="#706F6F"/>
<path d="M109.029 23.859H107.72C107.724 24.0063 107.776 24.1471 107.866 24.2558C107.91 24.3031 107.961 24.3402 108.018 24.3648C108.075 24.3894 108.136 24.4009 108.197 24.3988C108.29 24.4028 108.381 24.3742 108.458 24.3172C108.55 24.2308 108.628 24.1272 108.688 24.0112L109.047 24.238C108.996 24.3325 108.938 24.4214 108.872 24.5033C108.811 24.5737 108.742 24.6347 108.666 24.6847C108.596 24.7318 108.519 24.767 108.44 24.7892C108.353 24.8124 108.264 24.8238 108.174 24.8231C108.052 24.8289 107.931 24.8061 107.818 24.7561C107.704 24.7061 107.602 24.6301 107.518 24.5331C107.346 24.3211 107.257 24.0438 107.269 23.7603C107.257 23.4783 107.343 23.2019 107.51 22.9874C107.68 22.8018 107.909 22.6968 108.148 22.6951C108.387 22.6934 108.618 22.795 108.789 22.9782C108.955 23.1956 109.038 23.4745 109.022 23.7574L109.029 23.859ZM108.597 23.4806C108.579 23.3718 108.526 23.2738 108.448 23.205C108.369 23.1361 108.271 23.1012 108.171 23.1068C108.121 23.1064 108.071 23.1156 108.025 23.1338C107.98 23.1501 107.939 23.1754 107.903 23.2085C107.865 23.24 107.833 23.2789 107.808 23.3233C107.78 23.3715 107.76 23.4242 107.747 23.4795L108.597 23.4806ZM108.803 21.7517L108.119 22.4316L107.889 22.2754L108.405 21.5232L108.803 21.7517Z" fill="#706F6F"/>
</g>
<defs>
<clipPath id="clip0_552_20644">
<path d="M0.611084 16C0.611084 7.16344 7.77453 0 16.6111 0H108.389C111.703 0 114.389 2.68629 114.389 6V26C114.389 29.3137 111.703 32 108.389 32H16.6111C7.77452 32 0.611084 24.8366 0.611084 16Z" fill="white"/>
</clipPath>
</defs>
</svg>
